<?xml version="1.0" standalone="no"?>
<!DOCTYPE svg PUBLIC "-//W3C//DTD SVG 20010904//EN"
 "http://www.w3.org/TR/2001/REC-SVG-20010904/DTD/svg10.dtd">
<svg version="1.0" xmlns="http://www.w3.org/2000/svg"
 width="2000.000000pt" height="1811.000000pt" viewBox="0 0 2000.000000 1811.000000"
 preserveAspectRatio="xMidYMid meet">

<g transform="translate(0.000000,1811.000000) scale(0.100000,-0.100000)"
fill="#000000" stroke="none">
<path d="M8110 15964 c-14 -2 -40 -7 -58 -10 -19 -3 -39 -15 -48 -29 -15 -24
-14 -33 16 -157 36 -148 50 -184 80 -193 12 -4 21 -18 25 -38 23 -138 69 -472
90 -662 29 -250 39 -283 90 -297 40 -10 192 8 220 26 31 20 46 88 53 233 l5
121 56 7 c125 15 283 67 350 116 85 61 184 238 201 359 18 129 -15 223 -110
314 -93 89 -243 153 -435 187 -106 19 -471 35 -535 23z m531 -420 c44 -22 72
-90 77 -190 7 -132 -31 -204 -110 -204 -48 0 -53 11 -67 142 -15 130 -14 241
1 256 17 17 63 15 99 -4z"/>
<path d="M9361 15946 c-13 -16 -61 -186 -61 -216 0 -10 14 -27 30 -37 17 -9
30 -23 30 -29 0 -40 -46 -217 -194 -744 -30 -108 -57 -217 -61 -243 -7 -46 -6
-49 32 -85 27 -25 71 -49 139 -75 129 -49 170 -58 201 -44 27 12 69 88 110
197 29 76 39 90 65 90 33 0 95 -38 101 -62 5 -20 -6 -86 -39 -239 -9 -42 29
-77 111 -100 83 -23 118 -24 135 -4 13 16 44 128 60 220 6 33 26 123 44 200
37 151 78 374 101 550 9 61 25 168 36 238 22 128 22 129 2 155 -11 15 -44 39
-74 54 -106 54 -619 188 -718 188 -21 0 -44 -6 -50 -14z m514 -674 c-22 -157
-43 -249 -62 -267 -16 -17 -79 -20 -88 -5 -9 15 31 126 113 309 25 57 48 99
50 92 2 -6 -4 -64 -13 -129z"/>
<path d="M7243 15850 c-85 -22 -117 -38 -199 -96 -120 -84 -164 -167 -164
-304 0 -227 140 -438 334 -504 27 -9 111 -23 188 -32 201 -22 228 -35 228
-114 0 -54 -26 -86 -77 -96 -64 -13 -143 37 -143 91 0 41 -29 55 -117 55 -66
0 -85 -4 -107 -21 -32 -25 -32 -41 -5 -115 58 -156 242 -237 417 -185 93 28
216 86 266 124 70 55 85 141 42 234 -48 101 -153 146 -440 189 -250 37 -318
75 -318 180 0 80 81 150 188 162 77 8 105 -40 84 -143 -10 -47 -9 -60 4 -79
13 -20 25 -24 98 -29 46 -4 108 -11 138 -16 30 -6 101 -14 158 -17 123 -8 132
-3 162 94 71 228 -44 482 -265 586 -124 58 -327 74 -472 36z"/>
<path d="M6514 15706 c-130 -42 -762 -370 -836 -434 -34 -29 -22 -65 48 -151
58 -71 70 -81 99 -81 29 0 39 -8 87 -72 29 -40 82 -118 117 -173 35 -55 86
-134 112 -175 94 -144 177 -286 230 -389 50 -101 52 -105 36 -130 -43 -71
-132 -239 -149 -283 -104 -275 -152 -685 -114 -973 21 -157 68 -348 105 -427
60 -126 163 -210 294 -239 129 -28 356 46 515 167 118 90 236 220 282 313 28
55 31 69 24 99 -16 61 -42 72 -261 103 -109 16 -242 32 -296 36 -87 5 -99 4
-118 -13 -54 -47 -66 -149 -23 -189 25 -23 57 -30 189 -38 60 -3 59 -33 -2
-86 -67 -57 -119 -81 -181 -81 -43 0 -57 5 -86 31 -86 75 -128 226 -129 459 0
216 36 364 107 435 43 43 111 30 167 -32 32 -34 109 -167 144 -248 15 -33 34
-68 42 -77 20 -23 81 -23 131 -2 20 9 86 36 145 60 183 72 209 107 182 238
-27 127 -113 373 -173 495 -82 167 -213 345 -288 392 -19 11 -34 26 -34 33 0
7 23 18 51 25 64 17 98 46 105 91 7 41 -25 90 -58 90 -11 0 -71 -18 -133 -40
-172 -61 -184 -58 -235 71 -39 96 -36 124 18 146 175 71 242 120 242 176 0 50
-35 125 -64 138 -23 11 -96 -8 -257 -68 -68 -25 -88 -12 -138 87 -85 167 -103
229 -81 271 16 28 129 82 262 123 139 44 162 60 161 109 -1 48 -66 179 -104
211 -37 31 -44 31 -135 2z"/>
<path d="M10386 15608 c-8 -13 -24 -65 -35 -116 -23 -99 -21 -114 20 -127 12
-4 19 -16 19 -31 0 -47 -206 -845 -244 -947 -15 -37 -26 -76 -26 -87 0 -31 32
-56 104 -80 36 -12 68 -25 71 -29 2 -4 -30 -25 -73 -47 -103 -51 -216 -162
-260 -255 -59 -123 -67 -173 -67 -394 0 -164 3 -212 19 -269 44 -165 119 -273
236 -343 19 -12 97 -46 173 -76 167 -67 222 -98 242 -137 34 -65 0 -160 -69
-191 -53 -24 -80 -24 -125 2 -55 31 -73 63 -81 141 -8 90 -29 113 -125 133
-39 8 -84 15 -101 15 -128 1 -104 -292 37 -445 82 -89 202 -135 349 -135 111
0 171 11 268 51 105 43 193 130 217 214 48 165 -37 342 -212 439 -50 28 -231
109 -273 121 -14 4 -62 25 -108 47 -155 74 -234 179 -219 293 15 106 63 153
199 195 64 19 82 21 103 12 60 -28 68 -135 19 -256 -29 -71 -30 -97 -6 -125
20 -24 161 -79 296 -116 51 -14 122 -37 156 -50 103 -40 130 -34 165 36 67
131 94 417 56 587 -20 93 -80 236 -127 304 -21 30 -24 40 -14 58 9 17 3 71
-30 265 -23 135 -39 249 -35 254 3 6 39 8 88 4 106 -7 228 21 303 72 97 64
136 202 100 345 -22 84 -53 136 -134 222 -173 183 -442 351 -703 439 -107 36
-153 38 -173 7z m475 -590 c36 -38 52 -86 44 -137 -9 -61 -51 -148 -81 -167
-45 -30 -126 -15 -139 25 -12 40 46 240 83 284 21 24 67 22 93 -5z m-187 -499
l26 -20 0 -165 c0 -113 -3 -164 -11 -164 -6 0 -37 6 -68 14 -31 8 -81 17 -113
21 l-56 6 8 29 c5 16 39 90 76 165 74 147 85 156 138 114z"/>
<path d="M7656 14277 c-25 -25 -38 -80 -56 -249 -12 -108 -6 -132 36 -148 14
-6 24 -18 24 -28 0 -22 -86 -709 -100 -797 -5 -33 -18 -127 -29 -210 -11 -82
-29 -211 -41 -285 -37 -244 -30 -299 44 -334 77 -36 357 -92 412 -82 79 15 91
44 135 321 12 77 28 146 35 154 11 12 22 12 67 2 89 -20 91 -25 97 -230 7
-248 15 -257 204 -247 161 9 168 20 156 236 -5 80 -16 296 -25 480 -9 184 -27
459 -40 611 -14 152 -25 332 -25 400 0 152 -15 291 -36 331 -8 16 -30 35 -47
42 -32 14 -60 16 -477 41 -314 19 -307 19 -334 -8z m613 -1009 l1 -227 -26
-20 c-15 -12 -41 -21 -60 -21 -32 0 -34 2 -34 35 0 41 25 202 45 289 8 34 24
124 37 201 l23 140 6 -85 c4 -47 7 -187 8 -312z"/>
<path d="M8807 14140 c-20 -4 -49 -17 -62 -30 -24 -23 -25 -27 -25 -166 0
-173 16 -341 35 -371 19 -28 72 -43 153 -43 76 0 126 -21 141 -59 9 -20 9
-180 2 -606 -10 -625 -10 -622 41 -654 28 -17 175 -26 210 -12 55 21 60 41 79
329 10 147 25 341 33 432 8 91 20 233 27 315 18 254 22 259 171 270 146 11
153 21 177 255 6 58 16 142 22 186 13 102 0 138 -59 153 -43 12 -886 13 -945
1z"/>
<path d="M3237 13489 c-123 -29 -268 -164 -339 -314 l-29 -64 -59 68 c-95 111
-199 171 -296 171 -91 0 -192 -65 -210 -135 -28 -111 84 -324 271 -516 86 -88
248 -230 331 -291 69 -51 114 -52 158 -5 43 46 162 264 236 431 106 241 148
393 137 509 -10 113 -90 172 -200 146z"/>
<path d="M5433 13315 c-41 -18 -108 -103 -148 -190 -18 -38 -58 -125 -90 -193
-31 -67 -74 -176 -95 -242 -21 -66 -55 -159 -74 -207 -45 -113 -133 -387 -186
-578 -94 -336 -220 -862 -220 -916 0 -26 -15 -47 -78 -113 -70 -73 -230 -277
-309 -396 -44 -67 -130 -232 -169 -326 l-34 -83 0 -455 0 -455 30 -77 c132
-331 400 -674 780 -997 109 -94 116 -101 127 -150 44 -201 -29 -544 -224
-1052 -190 -494 -313 -967 -365 -1400 -19 -166 -16 -686 6 -845 74 -535 264
-991 591 -1420 136 -178 450 -483 649 -629 66 -49 75 -48 113 8 43 64 106 310
143 554 23 162 25 220 3 132 -8 -33 -33 -132 -54 -220 -52 -211 -127 -425
-149 -425 -10 0 -189 159 -275 245 -352 350 -625 783 -765 1215 -101 310 -140
548 -147 905 -6 286 4 447 41 706 33 222 127 637 188 828 28 86 55 172 60 191
5 19 36 118 68 220 64 200 107 368 136 525 23 131 24 378 2 448 -9 26 -13 47
-8 47 4 0 27 -15 51 -34 65 -49 301 -202 324 -210 24 -7 15 0 -131 119 -118
96 -332 285 -430 381 -207 202 -439 523 -545 751 -44 95 -80 186 -75 190 2 2
30 8 62 13 105 15 417 60 499 71 44 6 105 15 135 20 117 19 721 109 845 124
72 10 134 21 139 26 20 18 -28 20 -131 5 -101 -15 -164 -25 -503 -77 -218 -33
-251 -38 -340 -48 -79 -10 -135 -18 -485 -72 -255 -40 -233 -39 -245 -10 -50
125 -74 437 -46 601 9 52 22 112 28 133 10 34 14 38 37 32 14 -4 79 -18 143
-31 65 -13 211 -44 325 -70 115 -25 303 -65 418 -89 116 -24 248 -52 295 -63
162 -40 500 -105 507 -98 12 12 -3 16 -168 52 -90 19 -265 57 -389 84 -124 27
-313 67 -420 89 -107 23 -285 60 -395 85 -110 24 -228 49 -262 56 -47 9 -63
17 -63 29 0 9 22 80 49 157 53 155 162 357 241 449 25 28 100 117 168 198 127
151 386 409 505 504 38 30 66 57 63 60 -16 17 -349 -232 -483 -361 -29 -27
-55 -47 -58 -45 -3 3 -1 19 4 35 5 16 14 54 21 84 26 118 127 450 237 780 63
190 136 413 163 497 51 162 125 342 220 539 42 84 79 143 125 197 72 85 75 85
126 30 116 -124 430 -787 556 -1173 38 -117 42 -120 121 -120 203 0 444 -32
732 -96 168 -38 229 -57 410 -129 210 -85 360 -161 468 -241 47 -35 91 -64 97
-64 5 0 78 30 160 66 83 37 233 101 335 144 102 42 230 98 285 123 106 48 350
150 475 199 163 64 348 88 386 51 27 -27 13 -176 -35 -374 -35 -142 -146 -484
-224 -689 -13 -36 -38 -101 -54 -145 -51 -134 -271 -645 -278 -645 -1 0 -53
-11 -115 -25 -62 -14 -114 -24 -115 -23 0 2 -11 39 -24 83 -48 169 -217 555
-263 600 -13 12 -2 -28 18 -66 21 -42 63 -157 90 -249 36 -120 94 -350 94
-371 0 -12 -11 -19 -37 -24 -21 -3 -150 -31 -288 -60 -453 -99 -716 -155
-1000 -215 -325 -68 -444 -95 -452 -104 -19 -19 24 -14 194 22 103 23 235 50
293 62 58 12 121 25 140 30 31 8 452 99 975 210 99 21 181 37 183 35 13 -11
32 -288 32 -460 0 -186 -18 -416 -34 -432 -2 -3 -78 7 -168 21 -90 14 -262 40
-383 56 -255 36 -867 126 -940 140 -188 34 -365 47 -343 24 5 -5 214 -37 418
-64 147 -20 309 -43 545 -80 72 -11 195 -29 275 -40 438 -62 576 -83 584 -90
19 -18 -78 -358 -134 -470 -75 -148 -213 -308 -364 -422 -89 -67 -298 -185
-388 -220 -376 -145 -761 -223 -1368 -277 l-85 -7 130 -8 c160 -11 487 0 639
19 62 9 130 17 152 20 85 9 335 68 444 105 247 82 431 175 585 295 101 79 239
223 298 312 80 120 162 334 207 540 10 47 21 87 24 90 5 6 87 -5 511 -68 218
-32 245 -34 245 -19 0 6 -2 10 -5 10 -2 0 -89 13 -192 29 -103 16 -260 39
-348 51 -231 30 -208 20 -201 93 15 155 18 380 7 486 -10 98 -10 114 4 127 23
23 83 114 150 227 32 53 64 97 72 97 11 0 14 7 10 22 -4 14 7 43 32 87 153
261 424 900 536 1261 80 258 95 322 95 421 0 66 -4 81 -29 120 -90 143 -227
144 -610 5 -82 -30 -184 -71 -227 -91 -44 -20 -126 -57 -184 -82 -58 -24 -177
-80 -265 -123 -88 -44 -227 -106 -310 -139 l-150 -59 -85 42 c-47 22 -116 60
-155 84 -153 94 -315 159 -560 225 -191 52 -224 60 -351 82 -99 18 -400 44
-509 45 l-70 0 -27 73 c-14 39 -49 133 -76 207 -28 74 -65 178 -82 230 -18 52
-52 138 -75 190 -184 409 -203 442 -315 569 -96 109 -129 126 -197 96z m3527
-3292 c0 -3 -35 -71 -77 -150 -48 -90 -79 -139 -83 -131 -7 12 -41 193 -44
227 -1 10 25 22 84 37 93 23 120 27 120 17z"/>
<path d="M2824 11786 c-108 -35 -238 -157 -300 -283 -22 -43 -40 -80 -41 -82
-1 -2 -44 39 -95 91 -111 114 -162 141 -258 142 -167 1 -253 -115 -206 -274
43 -145 223 -366 456 -560 153 -126 188 -150 226 -150 61 0 121 86 258 370
121 253 173 408 183 547 5 69 3 87 -15 125 -12 24 -35 51 -51 61 -40 24 -108
29 -157 13z"/>
<path d="M2784 10086 c-119 -38 -262 -183 -319 -323 l-22 -53 -53 66 c-118
146 -247 207 -366 175 -98 -26 -154 -92 -154 -180 1 -148 172 -391 429 -611
234 -199 260 -213 322 -170 69 50 259 428 346 690 28 84 36 125 40 205 5 111
-8 151 -59 188 -33 25 -110 31 -164 13z"/>
<path d="M14733 10067 c-10 -16 -3 -654 8 -771 14 -155 62 -206 150 -160 35
18 106 123 164 242 21 45 42 82 45 82 3 0 11 -45 18 -100 11 -98 23 -137 46
-152 6 -4 31 -8 56 -8 64 0 145 41 203 102 30 32 47 44 47 34 0 -26 35 -88 67
-117 92 -86 228 -95 337 -23 57 39 264 251 287 296 10 21 19 48 19 60 -1 20
-9 14 -58 -39 -83 -90 -213 -196 -294 -239 -56 -29 -83 -37 -126 -38 -49 0
-57 3 -83 32 -16 18 -29 37 -29 42 0 5 21 26 48 47 26 21 83 74 127 118 64 64
90 99 128 175 74 147 78 227 15 273 -38 28 -121 38 -179 21 -54 -16 -134 -93
-179 -172 -38 -66 -77 -201 -86 -297 l-7 -75 -56 -48 c-81 -70 -102 -82 -138
-82 -67 0 -85 55 -84 258 1 79 3 147 6 151 2 4 5 47 6 96 2 97 -10 119 -61
113 -24 -3 -25 -6 -32 -93 -7 -104 -48 -243 -111 -373 -42 -88 -98 -162 -124
-162 -8 0 -23 21 -35 47 -20 45 -20 57 -13 307 12 421 12 411 -8 434 -21 23
-65 34 -74 19z m1116 -206 c10 -7 13 -25 9 -74 -7 -81 -50 -157 -135 -238 -61
-58 -141 -114 -150 -105 -7 7 13 116 34 181 23 73 87 179 130 214 38 31 83 40
112 22z"/>
<path d="M12104 10027 c-2 -7 5 -107 16 -222 11 -116 23 -312 27 -437 6 -209
8 -227 25 -231 10 -3 31 -2 46 2 l27 7 2 116 c4 183 16 264 54 352 60 141 173
238 311 267 69 15 88 25 88 49 0 16 -7 20 -37 20 -118 0 -253 -46 -326 -110
-21 -18 -56 -65 -77 -104 -23 -41 -40 -63 -40 -51 -1 49 -30 285 -39 307 -11
30 -69 55 -77 35z"/>
<path d="M12783 10024 c-5 -14 4 -138 27 -354 5 -47 12 -185 16 -308 l7 -222
24 -6 c14 -4 36 -1 50 5 21 10 24 16 20 41 -4 15 -2 98 3 183 8 147 10 159 46
242 62 146 161 235 303 274 77 22 101 35 101 57 0 33 -195 4 -286 -42 -67 -34
-126 -94 -162 -167 -33 -65 -42 -60 -42 26 0 58 -24 240 -34 255 -3 6 -20 15
-36 21 -25 8 -32 7 -37 -5z"/>
<path d="M16160 9988 c0 -24 9 -126 20 -228 11 -102 23 -283 26 -403 7 -214 7
-217 30 -223 12 -3 31 -1 42 5 18 10 20 24 24 193 6 211 13 239 96 360 76 109
160 167 289 197 82 20 99 61 25 61 -177 0 -325 -80 -397 -214 -16 -31 -33 -56
-36 -56 -3 0 -9 51 -13 113 -9 154 -22 212 -53 226 -44 20 -53 14 -53 -31z"/>
<path d="M9821 10004 c-85 -30 -134 -73 -176 -154 -22 -43 -23 -125 -2 -166
27 -53 129 -136 267 -219 196 -117 186 -101 104 -168 -169 -137 -201 -253 -87
-311 62 -31 109 -18 228 65 93 64 145 132 145 190 0 43 -20 90 -53 126 -11 13
-19 24 -16 26 2 2 31 20 64 41 33 21 79 51 103 67 23 16 46 29 51 29 12 0 23
-300 30 -870 3 -283 10 -521 14 -527 5 -7 21 -13 37 -13 25 0 31 5 39 36 6 23
8 208 4 517 -6 446 -5 480 10 474 31 -12 120 12 206 54 146 72 282 220 339
369 62 162 48 276 -40 330 -106 65 -278 -31 -424 -236 -26 -36 -57 -90 -69
-120 -12 -30 -25 -57 -28 -60 -3 -3 -8 25 -12 63 -24 234 -46 377 -62 406 -19
31 -69 56 -83 41 -4 -5 1 -56 11 -114 10 -58 21 -152 25 -210 l7 -105 -34 -17
c-19 -10 -78 -42 -133 -72 l-98 -54 -97 46 c-218 103 -322 177 -361 258 -27
58 -21 100 18 136 56 53 88 62 224 66 119 4 130 2 182 -21 60 -28 77 -23 45
12 -80 86 -260 126 -378 85z m1224 -199 c33 -32 33 -105 1 -198 -48 -135 -147
-247 -271 -307 -57 -28 -82 -34 -135 -34 -61 -1 -65 0 -68 23 -8 57 97 256
210 398 27 34 76 80 110 102 72 49 116 54 153 16z m-861 -537 c9 -12 16 -32
16 -44 0 -32 -81 -117 -143 -149 -150 -79 -139 56 15 185 64 54 79 55 112 8z"/>
<path d="M14414 9972 c-123 -66 -206 -146 -367 -355 -126 -164 -252 -280 -375
-345 -106 -56 -192 -49 -226 17 -16 30 -16 30 21 58 21 15 81 71 134 123 79
79 103 111 143 189 99 193 67 291 -97 291 -84 0 -128 -20 -188 -88 -64 -71
-106 -161 -130 -277 -24 -114 -22 -241 4 -292 47 -90 131 -143 227 -142 93 0
150 30 262 138 26 24 50 42 53 40 2 -3 -13 -49 -35 -102 -52 -129 -83 -230
-124 -417 -123 -554 -115 -790 34 -1010 67 -99 127 -122 262 -100 123 20 205
58 386 178 77 51 183 168 374 411 77 100 82 104 91 80 31 -81 44 -103 79 -135
37 -33 38 -36 32 -84 -9 -68 2 -130 30 -165 21 -26 31 -30 70 -29 48 1 89 23
175 93 46 39 180 211 213 274 11 22 21 37 23 35 3 -2 -1 -35 -6 -73 -24 -150
2 -274 61 -293 51 -17 150 21 221 85 40 36 119 157 119 182 0 7 -31 -19 -69
-58 -39 -39 -85 -80 -103 -91 -33 -20 -93 -26 -114 -12 -54 36 -54 222 1 567
8 50 14 93 15 96 0 13 -57 17 -115 7 -85 -13 -139 -47 -249 -155 -90 -87 -196
-225 -211 -274 -11 -32 -29 -17 -47 41 -28 84 -37 155 -40 295 l-3 129 68 47
c124 84 256 234 229 261 -11 11 -61 -12 -279 -130 -214 -116 -332 -171 -528
-245 -93 -36 -174 -71 -179 -79 -24 -39 31 -118 83 -118 17 0 103 34 193 77
89 42 185 84 213 94 l50 18 3 -30 c7 -62 -64 -235 -160 -392 -50 -82 -90 -130
-207 -248 -149 -150 -202 -189 -299 -221 -60 -20 -156 -24 -196 -8 -45 17
-113 88 -136 143 -22 50 -22 60 -17 257 6 219 26 412 58 550 33 144 90 321
128 400 167 341 310 546 475 674 88 69 112 101 101 135 -10 31 -49 26 -131
-17z m-723 -112 c41 -23 14 -142 -56 -237 -60 -83 -204 -198 -219 -175 -11 18
28 161 63 238 67 143 147 208 212 174z m1809 -1192 c-1 -80 -88 -285 -167
-397 -89 -124 -206 -223 -246 -208 -40 15 -20 154 39 263 60 112 107 175 184
248 89 84 190 134 190 94z"/>
<path d="M11695 9956 c-126 -40 -260 -156 -371 -323 -139 -209 -167 -425 -63
-482 78 -43 242 80 378 286 l68 102 -1 -143 c-1 -157 7 -186 56 -212 49 -25
147 12 234 88 34 30 114 155 114 179 0 7 -38 -24 -83 -69 -111 -107 -159 -125
-213 -79 -25 22 -27 30 -32 125 -5 110 9 263 38 412 22 115 17 130 -43 129
-23 0 -60 -6 -82 -13z m30 -96 c10 -16 -35 -169 -70 -241 -83 -169 -235 -344
-317 -364 -24 -6 -28 -3 -34 20 -10 40 1 123 26 188 25 65 120 212 175 269 95
99 200 160 220 128z"/>
<path d="M17108 9955 c-74 -20 -161 -79 -240 -164 -61 -65 -89 -107 -158 -237
l-84 -159 -4 -93 -4 -92 36 -36 c33 -33 40 -36 78 -31 39 5 109 47 170 101 43
38 151 176 187 239 18 31 36 57 40 57 5 0 5 -19 0 -42 -15 -80 -11 -220 9
-258 43 -86 140 -76 270 27 35 28 42 40 42 69 0 41 -9 43 -41 8 -55 -59 -142
-81 -178 -45 -40 40 -37 273 8 546 10 61 17 113 14 118 -7 11 -92 7 -145 -8z
m42 -93 c0 -5 -9 -44 -20 -87 -50 -195 -227 -453 -349 -508 -43 -19 -45 -19
-59 -1 -31 42 3 184 71 293 74 119 183 236 262 282 48 28 95 38 95 21z"/>
<path d="M9269 9948 c-20 -5 -62 -32 -93 -59 -100 -90 -176 -285 -176 -453 0
-104 13 -148 58 -197 82 -92 195 -117 303 -67 101 47 329 275 349 350 6 22 10
42 8 44 -3 2 -50 -41 -107 -96 -187 -182 -317 -255 -412 -230 -35 10 -69 45
-69 72 1 7 30 36 66 63 91 70 187 176 228 254 38 73 66 159 66 203 0 41 -25
85 -58 101 -36 19 -119 26 -163 15z m116 -94 c21 -22 11 -102 -23 -174 -30
-63 -144 -182 -212 -219 l-43 -24 6 54 c22 215 192 442 272 363z"/>
<path d="M6210 9674 c-59 -12 -91 -27 -120 -60 -53 -61 -36 -138 44 -193 24
-17 56 -51 70 -76 39 -66 57 -72 114 -39 69 40 113 61 151 75 19 7 50 26 68
42 27 24 33 36 33 70 0 36 -6 47 -49 88 -74 71 -210 112 -311 93z"/>
<path d="M16030 9175 c-9 -11 -9 -46 -1 -153 6 -76 11 -166 11 -200 l0 -62
-37 -1 c-126 -1 -255 -18 -273 -34 -26 -23 -25 -47 0 -70 20 -18 26 -18 162
-2 78 9 144 14 147 12 2 -3 10 -96 17 -207 12 -182 20 -261 40 -380 11 -63 65
-161 99 -177 41 -20 112 -25 161 -12 51 14 129 72 149 112 14 26 14 30 0 35
-10 4 -32 -9 -60 -35 -82 -75 -146 -83 -205 -23 -31 30 -40 50 -54 112 -24
105 -37 280 -34 450 l3 145 110 22 c61 12 142 25 180 28 68 7 69 7 54 -11 -29
-33 -59 -102 -59 -136 0 -88 129 -225 318 -336 66 -40 123 -76 126 -81 3 -5
-31 -42 -76 -82 -96 -87 -138 -148 -138 -199 0 -64 77 -118 148 -105 90 17
217 106 270 189 20 32 23 48 20 92 -4 46 -12 65 -53 120 -11 16 0 25 95 83 36
22 83 55 105 75 l40 36 -40 -15 c-22 -9 -88 -43 -147 -75 l-107 -60 -158 76
c-232 112 -313 186 -313 285 0 59 23 89 92 120 45 20 69 24 163 24 105 0 114
-2 178 -33 38 -19 71 -32 74 -29 8 9 -19 50 -51 79 -38 34 -119 66 -189 74
-44 5 -473 -24 -604 -42 l-43 -5 -1 123 c0 166 -11 267 -29 278 -23 15 -76 12
-90 -5z m952 -1082 c33 -32 36 -63 8 -108 -42 -67 -163 -136 -206 -116 -31 14
-30 37 5 92 27 43 142 159 157 159 4 0 21 -12 36 -27z"/>
<path d="M12851 9034 c-49 -35 -54 -67 -59 -389 l-4 -300 -29 -56 c-28 -56
-126 -156 -179 -184 -49 -25 -85 -27 -111 -6 l-24 19 76 74 c60 58 81 85 98
131 25 68 26 86 7 113 -11 15 -26 19 -65 18 -42 0 -57 -6 -82 -30 -55 -52 -82
-119 -87 -214 -4 -81 -3 -88 21 -116 35 -41 94 -59 147 -43 48 15 147 107 191
179 17 28 34 50 38 50 4 0 13 -57 20 -127 20 -200 31 -258 56 -289 13 -16 26
-26 30 -22 4 4 0 60 -9 125 -9 65 -23 175 -30 245 l-14 126 44 144 c100 323
111 517 35 558 -27 14 -43 13 -70 -6z m67 -46 c17 -17 15 -137 -3 -244 -19
-109 -63 -275 -77 -289 -15 -15 -4 429 12 480 19 63 41 80 68 53z m-331 -579
c15 -15 0 -72 -31 -119 -26 -39 -84 -90 -104 -90 -32 0 30 164 75 200 29 23
44 25 60 9z"/>
<path d="M11732 8971 c-13 -8 -6 -134 33 -671 20 -262 21 -270 45 -270 13 0
20 7 20 19 0 13 10 21 33 25 49 9 122 59 151 103 55 82 83 223 55 274 -5 11
-22 24 -36 30 -60 23 -137 -38 -192 -154 l-28 -59 -6 69 c-4 37 -11 147 -17
243 -25 392 -28 410 -58 391z m296 -543 c18 -18 14 -81 -8 -141 -33 -89 -113
-167 -170 -167 -19 0 -20 4 -15 38 19 111 76 228 128 261 37 24 48 26 65 9z"/>
<path d="M3013 8704 c-54 -31 -89 -91 -108 -180 -26 -122 -14 -257 33 -364
l19 -45 -146 0 c-140 0 -148 -1 -204 -28 -134 -66 -189 -227 -110 -325 42 -52
119 -88 253 -119 104 -24 134 -27 315 -27 188 -1 374 14 456 35 84 21 92 81
35 277 -101 348 -241 642 -355 745 -71 64 -120 72 -188 31z"/>
<path d="M11216 8528 c-3 -7 -6 -86 -8 -176 l-3 -163 -42 -40 c-47 -43 -86
-51 -103 -20 -14 27 -12 119 4 231 9 60 11 99 5 105 -14 14 -97 -12 -138 -44
-90 -72 -162 -177 -180 -262 -15 -69 5 -119 47 -119 37 0 98 44 142 104 76
102 69 100 70 19 0 -60 4 -77 21 -94 14 -14 27 -18 42 -13 36 10 85 44 107 71
l20 26 0 -50 c0 -47 12 -73 35 -73 6 0 17 32 24 71 21 114 84 283 116 309 18
15 17 21 19 -153 1 -101 4 -130 16 -137 15 -9 40 4 40 22 0 17 80 181 97 200
23 25 30 16 38 -49 7 -59 25 -104 53 -135 15 -18 65 -24 96 -12 25 10 19 24
-10 24 -60 0 -88 40 -98 140 -11 102 -16 119 -38 125 -27 9 -60 -24 -100 -101
-18 -35 -36 -64 -40 -64 -3 0 -8 45 -10 100 -2 58 -8 104 -15 111 -33 33 -97
-33 -139 -141 -9 -25 -21 -49 -25 -54 -4 -5 -7 49 -6 120 2 115 0 129 -16 132
-9 2 -19 -2 -21 -10z m-200 -150 c-10 -52 -59 -149 -105 -205 -40 -51 -92 -89
-105 -76 -13 14 -5 75 18 128 31 68 141 185 175 185 21 0 23 -3 17 -32z"/>
<path d="M12994 8476 c-45 -20 -76 -69 -76 -119 1 -36 6 -47 41 -78 23 -20 73
-55 111 -78 39 -23 70 -46 70 -51 0 -6 -19 -27 -42 -48 -73 -66 -81 -133 -16
-147 49 -11 143 47 175 108 13 26 12 32 -5 68 l-20 40 54 36 c30 20 52 38 50
40 -3 3 -30 -9 -61 -26 -31 -17 -64 -31 -73 -31 -9 0 -57 22 -107 48 -92 49
-135 92 -135 137 0 66 141 96 232 49 29 -15 30 -15 24 1 -3 9 -6 18 -6 21 0 2
-18 13 -40 24 -46 23 -129 26 -176 6z m204 -368 c19 -19 14 -42 -15 -70 -53
-49 -103 -61 -103 -23 0 19 78 105 94 105 7 0 17 -5 24 -12z"/>
<path d="M9831 8019 c-76 -13 -248 -72 -346 -118 -254 -119 -495 -354 -600
-586 -131 -288 -100 -621 83 -898 55 -84 182 -209 260 -255 103 -62 195 -86
327 -86 128 0 184 17 280 86 149 106 200 321 100 418 -44 43 -112 53 -144 21
-32 -32 -28 -83 10 -115 34 -29 66 -33 95 -11 32 24 37 18 31 -36 -9 -72 -46
-147 -101 -201 -90 -88 -202 -119 -347 -94 -435 76 -705 612 -533 1059 47 122
100 209 188 304 169 182 387 316 610 375 117 30 318 30 435 -1 222 -58 361
-140 536 -316 174 -175 263 -312 375 -581 100 -241 160 -561 160 -856 0 -551
-192 -1085 -557 -1548 -86 -110 -302 -325 -423 -421 -239 -189 -502 -345 -695
-412 -363 -125 -697 -140 -1197 -51 -21 4 -38 10 -38 14 0 5 19 32 43 62 127
158 243 391 312 626 53 184 66 280 72 537 5 216 3 253 -17 370 -25 149 -89
354 -153 488 -57 119 -161 288 -253 407 -79 104 -379 429 -534 580 -254 247
-497 523 -537 608 -29 62 -39 146 -25 219 11 63 0 61 -22 -4 -22 -65 -20 -151
5 -220 51 -137 230 -370 564 -733 401 -437 534 -609 664 -865 136 -267 200
-545 201 -871 0 -241 -63 -581 -147 -794 -63 -159 -220 -429 -283 -485 -12
-11 -32 -33 -43 -50 l-22 -30 30 22 c17 11 39 30 49 42 11 12 25 21 33 21 8 0
71 -26 141 -57 277 -125 410 -283 372 -441 -7 -31 -24 -63 -42 -82 -45 -48
-159 -97 -251 -109 -137 -19 -625 -13 -1024 13 -35 2 -63 0 -63 -4 0 -7 196
-57 330 -84 268 -54 497 -73 664 -57 156 15 220 31 321 80 84 41 135 84 163
135 27 49 24 226 -5 288 -28 62 -103 140 -175 185 -32 20 -57 38 -55 39 2 2
37 0 78 -6 198 -25 528 -2 717 51 148 41 424 165 578 259 62 38 232 162 299
218 160 133 403 388 532 558 148 195 311 493 368 674 15 47 40 126 56 175 70
220 93 419 86 753 -6 307 -36 467 -143 766 -104 290 -362 650 -558 779 -46 31
-93 65 -103 75 -46 48 -215 122 -348 154 -94 22 -305 32 -384 17z"/>
<path d="M17674 7686 c-37 -17 -69 -55 -85 -103 -29 -87 10 -288 92 -483 46
-108 163 -324 191 -352 43 -43 101 -15 269 129 214 185 383 379 417 482 52
152 -71 229 -271 171 -82 -23 -136 -53 -204 -114 l-51 -46 -11 45 c-30 118
-97 217 -174 257 -51 26 -133 33 -173 14z"/>
<path d="M16955 6261 c-29 -13 -72 -61 -84 -94 -25 -65 -6 -220 47 -382 26
-81 169 -375 211 -434 50 -70 92 -61 229 46 194 151 412 387 468 508 61 130 4
225 -134 225 -114 0 -257 -64 -341 -154 l-35 -36 -21 68 c-56 176 -131 252
-255 258 -36 2 -74 0 -85 -5z"/>
<path d="M6605 5210 c8 -78 24 -425 31 -670 9 -314 -8 -654 -47 -922 l-11 -76
-42 -6 c-301 -45 -678 -26 -1051 52 -83 18 -106 20 -93 7 17 -17 357 -125 476
-151 199 -43 548 -67 644 -45 20 5 39 7 41 5 6 -7 -41 -231 -76 -359 -19 -69
-93 -275 -128 -359 -41 -96 -41 -96 35 -96 135 0 282 46 439 137 106 62 368
243 453 314 44 37 109 99 145 139 35 40 95 104 132 143 100 104 103 124 6 35
-83 -77 -317 -255 -474 -359 -44 -30 -105 -72 -135 -95 -72 -54 -440 -199
-440 -174 0 5 9 33 21 62 82 207 150 507 184 808 17 159 21 729 5 910 -21 242
-67 545 -105 690 -14 55 -14 55 -10 10z"/>
<path d="M16330 5031 c-67 -13 -135 -56 -215 -136 -63 -63 -90 -98 -121 -163
l-41 -83 -28 41 c-44 63 -144 150 -205 179 -65 30 -162 34 -221 8 -55 -24
-106 -87 -114 -140 -23 -153 167 -421 489 -690 180 -150 206 -161 265 -111 82
69 287 484 356 723 61 209 35 341 -74 371 -39 11 -40 11 -91 1z"/>
<path d="M15008 4026 c-112 -41 -244 -169 -305 -294 l-39 -80 -52 64 c-104
126 -193 178 -302 177 -100 -1 -174 -43 -206 -118 -20 -48 -18 -95 8 -162 66
-176 243 -383 512 -599 148 -119 170 -126 229 -75 63 56 236 395 318 623 88
246 87 393 -4 453 -34 22 -114 28 -159 11z"/>
</g>
</svg>
